<svg xmlns="http://www.w3.org/2000/svg" width="83" height="95.474" viewBox="0 0 83 95.474"><defs><style>.a{fill:#185515;}</style></defs><g transform="translate(-12.444)"><g transform="translate(12.444)"><path class="a" d="M45.167,120.981c4.928-.261,8.044-1.87,9.263-4.791a7.381,7.381,0,0,0,.407-3.851,9.024,9.024,0,0,0,4.085,1.155,5.826,5.826,0,0,0,.874-.063,5.334,5.334,0,0,0,3.716-2.517,1.4,1.4,0,1,0-2.36-1.519,2.51,2.51,0,0,1-1.772,1.261c-1.815.288-4.17-1.284-4.932-1.909a1.323,1.323,0,0,0-.843-.3,12.132,12.132,0,0,0-1.6-2.485c-5.582-6.245-5.818-11.381-5.824-11.458a1.443,1.443,0,0,0-1.433-1.368,1.406,1.406,0,0,0-1.375,1.431c.006.249.191,6.168,6.537,13.265,1.179,1.33,2.963,4.821,1.934,7.281-.954,2.284-4.234,2.932-6.818,3.069a1.4,1.4,0,0,0,.07,2.806Z" transform="translate(-27.871 -46.46)"/><path class="a" d="M44.445,86.755c-.008-.011,1.892-.287,3.865,4.384.141.34,1.446,3.343,4.128,4.139a4.46,4.46,0,0,0,1.269.183,5.564,5.564,0,0,0,3.2-1.105,1.4,1.4,0,0,0-1.593-2.307,2.437,2.437,0,0,1-2.073.535c-1.192-.346-2.085-1.937-2.336-2.526-3.013-7.159-6.844-6.124-7.269-5.991a1.44,1.44,0,0,0-.927,1.79A1.367,1.367,0,0,0,44.445,86.755Z" transform="translate(-27.508 -41.871)"/><path class="a" d="M72.655,49.606a1.41,1.41,0,0,0,.761,1.835l.537.106a1.407,1.407,0,0,0,1.3-.867c4.039-9.756.533-23.4.387-23.98a1.378,1.378,0,0,0-1.711-1,1.393,1.393,0,0,0-1,1.713C72.955,27.547,76.336,40.715,72.655,49.606Z" transform="translate(-42.426 -12.793)"/><path class="a" d="M68.334,147.006a1.4,1.4,0,0,0-.434,2.775,8.651,8.651,0,0,1,6.664,6.121,1.4,1.4,0,0,0,1.356,1.047l.356-.05a1.4,1.4,0,0,0,1-1.711C75.442,148.2,68.623,147.053,68.334,147.006Z" transform="translate(-39.515 -73.321)"/><path class="a" d="M60.378,160.673c-3.559.817-9.133-5.967-11.825-10.416a1.407,1.407,0,0,0-2.407,1.456c.769,1.275,7.355,11.828,13.662,11.828a5.666,5.666,0,0,0,1.174-.126,1.4,1.4,0,1,0-.6-2.743Z" transform="translate(-29.155 -74.614)"/><path class="a" d="M35.39,111.572a1.4,1.4,0,0,0,.182-2.8c-3.06-.406-4.588-5.847-4.955-8.1.638-9.832-2.867-13.46-3.02-13.612a1.394,1.394,0,0,0-1.959-.009,1.42,1.42,0,0,0-.045,1.977c.029.032,2.8,3.092,2.211,11.61l.013.3c.061.4,1.524,9.834,7.382,10.611Z" transform="translate(-18.814 -43.226)"/><path class="a" d="M55.885,50.588a1.406,1.406,0,0,0,.713,1.854l.57.12a1.4,1.4,0,0,0,1.282-.834c1.462-3.3-.072-9.077-.254-9.729l-.143-.34c-3.671-6.2,1.29-12.442,1.5-12.7a1.388,1.388,0,0,0,.262-1.193,20.088,20.088,0,0,0,1.6,1.665,1.412,1.412,0,0,0,.956.374,1.406,1.406,0,0,0,.957-2.436c-2.551-2.356-3.757-4.58-3.5-6.428.313-2.3,2.8-3.608,2.862-3.642a1.405,1.405,0,0,0-1.262-2.511c-.156.078-3.836,1.958-4.374,5.738a8.493,8.493,0,0,0,2,6.3,1.385,1.385,0,0,0-1.671.359c-.263.32-6.329,7.9-1.841,15.741C55.941,44.475,56.744,48.65,55.885,50.588Z" transform="translate(-33.117 -7.301)"/><path class="a" d="M77.8,84.44c-.488,1.79-4.417,1.838-6.251,1.581a1.439,1.439,0,0,0-1.588,1.194,1.41,1.41,0,0,0,1.2,1.587,16.585,16.585,0,0,0,2.224.146c2.5,0,6.257-.556,7.131-3.769a1.408,1.408,0,0,0-.986-1.725A1.423,1.423,0,0,0,77.8,84.44Z" transform="translate(-41.131 -41.606)"/><path class="a" d="M92.9,46.286C95.007,33.329,89.681,29,87.823,27.909c.719-8.481-4.056-12.1-5.61-13.039a10.423,10.423,0,0,0-1.359-4.363c-3-5.148-9.714-6.806-10.667-7.021C67.979,1.185,65.623,0,63.141,0L63.01,0c-4.263.07-7.518,3.59-9.058,5.628C52.41,3.592,49.155.073,44.892,0l-.132,0c-2.478,0-4.836,1.185-7.043,3.486-.955.215-7.667,1.873-10.672,7.021a10.3,10.3,0,0,0-1.356,4.363c-1.554.938-6.33,4.558-5.611,13.036C18.229,29,12.894,33.325,15,46.284c-.52.969-3.794,7.434-2.048,13.632A11.924,11.924,0,0,0,14.9,63.78c-.163,1.621-.366,9.281,9.04,16.318A41.274,41.274,0,0,1,33.987,91.739l.3.353c.193.164,4.184,3.381,8.964,3.381a9.665,9.665,0,0,0,2.763-.392c3.32-.954,5.965-3.652,7.921-7.991,1.953,4.34,4.6,7.038,7.92,7.991a9.689,9.689,0,0,0,2.762.392c4.78,0,8.77-3.217,8.969-3.381l.3-.353A41.277,41.277,0,0,1,83.938,80.1c9.389-7.027,9.195-14.683,9.032-16.315a11.573,11.573,0,0,0,1.95-3.867C96.7,53.726,93.427,47.267,92.9,46.286ZM52.322,83.618c-1.688,4.947-4.055,7.9-7.054,8.765-4,1.174-8.133-1.681-9.014-2.337a43.79,43.79,0,0,0-10.624-12.2c-5.657-4.235-7.327-8.581-7.793-11.275a15.551,15.551,0,0,0,1.391.938l.684.173a1.406,1.406,0,0,0,.691-2.63C13.709,61.2,14.946,54.183,16.334,50.27l.652.18.315-.035a1.4,1.4,0,0,0,1.053-1.687c-2.646-11.459.392-16.079,2.222-17.735a33.818,33.818,0,0,0,1.6,5.234,1.4,1.4,0,0,0,1.306.887l.52-.1a1.4,1.4,0,0,0,.79-1.819c-4.107-10.375-.964-15.169,1.107-17.034a15.407,15.407,0,0,0,.482,2.051,1.4,1.4,0,0,0,1.337.971l.429-.067a1.4,1.4,0,0,0,.9-1.769,8.889,8.889,0,0,1,.426-7.431A11.809,11.809,0,0,1,34.8,7.465a1.383,1.383,0,0,0,.608,1.471,1.4,1.4,0,0,0,1.935-.429c2.407-3.791,4.906-5.71,7.417-5.71l.073,0c3.7.056,6.7,4.188,7.479,5.362l.007,75.456Zm29.957-5.77a43.741,43.741,0,0,0-10.624,12.2c-.879.658-5,3.5-9,2.337-3-.867-5.376-3.812-7.068-8.763V8.167c1.114-1.728,4.114-5.3,7.474-5.353l.073,0c2.515,0,5.005,1.924,7.422,5.71A1.4,1.4,0,0,0,73.1,7.478a11.812,11.812,0,0,1,5.326,4.451,8.887,8.887,0,0,1,.426,7.431,1.4,1.4,0,0,0,.9,1.769l.431.067a1.4,1.4,0,0,0,1.336-.971A16.142,16.142,0,0,0,82,18.172c2.065,1.868,5.213,6.658,1.109,17.035a1.4,1.4,0,0,0,.789,1.82l.516.1a1.4,1.4,0,0,0,1.306-.888,33.148,33.148,0,0,0,1.606-5.23c1.827,1.656,4.865,6.274,2.223,17.73a1.407,1.407,0,0,0,1.053,1.686l.314.036.628-.168a15.169,15.169,0,0,1,.691,8.861,9.722,9.722,0,0,1-4.931,5.907A1.407,1.407,0,0,0,88,67.694l.686-.176a15.21,15.21,0,0,0,1.383-.935C89.609,69.272,87.931,73.619,82.279,77.848Z" transform="translate(-12.444)"/><path class="a" d="M118.033,17.3c.025.014,2.521,1.32,2.85,3.623.272,1.85-.943,4.081-3.5,6.445a1.406,1.406,0,0,0,.958,2.436,1.424,1.424,0,0,0,.954-.374,22.533,22.533,0,0,0,1.6-1.662,1.364,1.364,0,0,0,.263,1.193c.053.062,5.19,6.471,1.5,12.7l-.143.337c-.175.646-1.714,6.434-.252,9.729a1.4,1.4,0,0,0,1.284.834l.567-.12a1.406,1.406,0,0,0,.713-1.854c-.775-1.744-.211-5.55.348-7.664,4.487-7.846-1.584-15.421-1.848-15.741a1.379,1.379,0,0,0-1.666-.359,8.484,8.484,0,0,0,2.007-6.3c-.534-3.779-4.218-5.659-4.374-5.737a1.4,1.4,0,0,0-1.257,2.511Z" transform="translate(-64.566 -7.305)"/><path class="a" d="M125.257,118.173c-2.584-.137-5.865-.777-6.818-3.069-1.025-2.463.761-5.954,1.936-7.278,6.348-7.095,6.526-13.021,6.532-13.268a1.4,1.4,0,0,0-2.808-.066c0,.055-.224,5.2-5.82,11.464a11.536,11.536,0,0,0-1.6,2.479,1.378,1.378,0,0,0-.847.3c-.759.625-3.1,2.188-4.926,1.91a2.522,2.522,0,0,1-1.772-1.265,1.4,1.4,0,1,0-2.361,1.52,5.317,5.317,0,0,0,3.716,2.52,5.486,5.486,0,0,0,.87.06,8.979,8.979,0,0,0,4.086-1.154,7.353,7.353,0,0,0,.409,3.848c1.217,2.924,4.332,4.531,9.262,4.794l.07,0a1.4,1.4,0,0,0,.074-2.8Z" transform="translate(-59.383 -46.455)"/><path class="a" d="M122.506,92.594a2.439,2.439,0,0,1-2.073-.537,1.4,1.4,0,0,0-1.6,2.309,5.6,5.6,0,0,0,3.206,1.1,4.478,4.478,0,0,0,1.268-.18c2.679-.79,3.989-3.8,4.126-4.13,1.911-4.535,3.722-4.385,3.856-4.395A1.392,1.392,0,0,0,133,85.856a1.411,1.411,0,0,0-.885-1.777c-.43-.141-4.254-1.175-7.268,6C124.6,90.652,123.7,92.243,122.506,92.594Z" transform="translate(-65.213 -41.874)"/><path class="a" d="M111.974,51.557l.538-.106a1.4,1.4,0,0,0,.759-1.835c-3.675-8.873-.3-22.059-.269-22.191a1.4,1.4,0,0,0-1-1.713,1.379,1.379,0,0,0-1.706,1c-.153.576-3.649,14.224.388,23.98A1.392,1.392,0,0,0,111.974,51.557Z" transform="translate(-60.479 -12.8)"/><path class="a" d="M112.086,149.787a1.4,1.4,0,0,0,1.165-1.6,1.418,1.418,0,0,0-1.6-1.169c-.291.047-7.107,1.2-8.947,8.183a1.4,1.4,0,0,0,1,1.712l.357.05a1.4,1.4,0,0,0,1.358-1.048A8.621,8.621,0,0,1,112.086,149.787Z" transform="translate(-57.443 -73.327)"/><path class="a" d="M127.842,149.787a1.412,1.412,0,0,0-1.929.472c-2.693,4.449-8.282,11.245-11.825,10.416a1.407,1.407,0,0,0-.615,2.745,5.89,5.89,0,0,0,1.179.126c6.309,0,12.892-10.553,13.657-11.829A1.393,1.393,0,0,0,127.842,149.787Z" transform="translate(-62.292 -74.616)"/><path class="a" d="M153.41,89.03a1.4,1.4,0,0,0-2-1.972c-.153.152-3.658,3.78-3.017,13.612-.345,2.128-1.9,7.693-4.959,8.1a1.4,1.4,0,0,0,.184,2.8l.187-.01c5.859-.783,7.319-10.217,7.382-10.618l.013-.3C150.626,92.191,153.338,89.114,153.41,89.03Z" transform="translate(-77.177 -43.222)"/><path class="a" d="M108.818,88.808a1.411,1.411,0,0,0,1.2-1.587,1.426,1.426,0,0,0-1.586-1.194c-1.189.172-5.712.4-6.258-1.581a1.4,1.4,0,0,0-2.71.739c.875,3.213,4.629,3.768,7.133,3.768A17.769,17.769,0,0,0,108.818,88.808Z" transform="translate(-55.824 -41.609)"/></g></g></svg>