<svg xmlns="http://www.w3.org/2000/svg" width="71.603" height="95.474" viewBox="0 0 71.603 95.474"><defs><style>.a{fill:#185515;}</style></defs><g transform="translate(-64.009 0.001)"><g transform="translate(64.009 -0.001)"><path class="a" d="M135.476,56.834l-.068-.934c-1.094-14.237-7.723-23.163-13.571-31.035-5.415-7.29-10.092-13.585-10.092-22.873a1.992,1.992,0,0,0-1.08-1.77A1.97,1.97,0,0,0,108.6.374C99.814,6.659,92.486,17.253,89.926,27.361c-1.777,7.037-2.012,14.948-2.045,20.173-8.111-1.733-9.949-13.867-9.968-14a1.989,1.989,0,0,0-2.838-1.509c-.425.206-10.44,5.295-11.023,25.616-.041.676-.043,1.352-.043,2.03a35.8,35.8,0,0,0,71.6,0C135.612,58.681,135.544,57.757,135.476,56.834ZM99.81,91.5c-6.581,0-11.934-5.7-11.934-12.713,0-.239,0-.48.015-.775a16.125,16.125,0,0,1,1.257-6.317c1.154,2.479,3.218,4.757,6.567,4.757a1.988,1.988,0,0,0,1.989-1.989,39.79,39.79,0,0,1,.763-9.048,19.223,19.223,0,0,1,4.027-7.626,25.631,25.631,0,0,0,4.1,7.523c2.3,3.271,4.681,6.653,5.1,12.419.025.342.051.686.051,1.055C111.744,85.792,106.391,91.5,99.81,91.5Zm12.57-2.6a17.044,17.044,0,0,0,3.342-10.114c0-.468-.029-.9-.087-1.717-.472-6.493-3.294-10.506-5.786-14.047C107.726,60,105.894,57.4,105.894,53.7a1.988,1.988,0,0,0-3.187-1.587A23.236,23.236,0,0,0,94.6,64.485a36.414,36.414,0,0,0-.835,7.058,9.447,9.447,0,0,1-1.81-4.271,1.993,1.993,0,0,0-2.878-1.5c-.5.256-4.9,2.782-5.157,12.07-.018.315-.019.629-.019.942A17.044,17.044,0,0,0,87.241,88.9,31.864,31.864,0,0,1,67.987,59.672c0-.6,0-1.191.039-1.853.342-11.922,4.157-17.835,6.647-20.443,1.736,6.215,6.285,14.34,15.193,14.34a1.988,1.988,0,0,0,1.989-1.989c0-6.656.15-14.348,1.929-21.391,2.02-7.979,7.554-16.6,14.233-22.428,1.109,8.519,5.749,14.766,10.627,21.329,5.8,7.8,11.792,15.875,12.8,28.943l.068.952c.062.828.126,1.653.126,2.541A31.865,31.865,0,0,1,112.38,88.9Z" transform="translate(-64.009 0.001)"/></g></g></svg>