<svg xmlns="http://www.w3.org/2000/svg" width="130.44" height="95.474" viewBox="0 0 130.44 95.474"><defs><style>.a{fill:#185515;}</style></defs><g transform="translate(0 -56.4)"><g transform="translate(0 56.4)"><path class="a" d="M128.208,102.153H117.173c4.588-10.415,4.092-18.847,2.356-24.55-2.976-10.167-13.019-21.2-27.9-21.2A34.881,34.881,0,0,0,79.6,58.632a62.382,62.382,0,0,0-13.887,6.944,59.531,59.531,0,0,0-13.887-6.944A35.414,35.414,0,0,0,39.8,56.4c-14.879,0-24.922,11.035-27.9,21.2-1.736,6.076-2.356,15.251,3.472,26.782H1.984a1.984,1.984,0,0,0,0,3.968H17.731a26.175,26.175,0,0,0,2.232,3.348c12.9,18.6,40.917,38.81,46,40.049v.124a.384.384,0,0,0,.248-.124h.372v-.124c4.34-2.108,31.246-19.467,45.381-40.049a45.615,45.615,0,0,0,3.472-5.58h13.019a1.958,1.958,0,0,0,1.984-1.984A2.083,2.083,0,0,0,128.208,102.153Zm-19.839,7.316c-13.143,19.219-37.322,34.718-42.529,38.066-5.332-3.348-29.386-18.971-42.653-38.066l-.744-1.116H40.669a2.046,2.046,0,0,0,1.86-1.116L50.837,90.87l13.019,33.354a2.03,2.03,0,0,0,1.86,1.24h.124a1.975,1.975,0,0,0,1.86-1.488L79.107,84.918l6.076,19.715A2.021,2.021,0,0,0,86.794,106a2.147,2.147,0,0,0,1.984-.868l4.836-7.068L97.706,105a1.979,1.979,0,0,0,1.736.992H110.6C109.857,107.237,109.113,108.353,108.369,109.469Zm4.464-7.316H100.682L95.6,93.474a1.979,1.979,0,0,0-1.736-.992,1.876,1.876,0,0,0-1.736.868l-4.216,6.2-6.82-22.195a2.3,2.3,0,0,0-1.984-1.488,2.122,2.122,0,0,0-1.984,1.488l-11.531,39.8L53.069,85.166a1.865,1.865,0,0,0-1.736-1.24,1.923,1.923,0,0,0-1.86,1.116l-9.8,19.219H19.963C15,95.21,13.639,86.53,15.871,78.719c2.6-8.8,11.159-18.227,24.054-18.227a32.984,32.984,0,0,1,10.663,1.984A60.278,60.278,0,0,1,64.6,69.667a1.886,1.886,0,0,0,2.48,0s4.836-3.844,14.011-7.192a29.976,29.976,0,0,1,10.663-1.984c12.771,0,21.451,9.423,24.054,18.227C117.916,85.91,116.8,93.846,112.833,102.153Z" transform="translate(0 -56.4)"/></g></g></svg>