<svg xmlns="http://www.w3.org/2000/svg" width="56.06" height="95.474" viewBox="0 0 56.06 95.474"><defs><style>.a{fill:#185515;}</style></defs><g transform="translate(-112 -19.137)"><path class="a" d="M112.114,96.4a1.6,1.6,0,0,0,.3,1.666l14.415,16.017a1.6,1.6,0,0,0,2.71-.565l6.691-20.075q1.737-5.211,3.8-10.291c1.376,3.389,2.65,6.837,3.8,10.291l6.692,20.075a1.6,1.6,0,0,0,2.71.565l14.415-16.017a1.6,1.6,0,0,0,.3-1.666l-4.317-10.791a186.422,186.422,0,0,0-12.433-25.032q3.019-5.119,6.394-10.03l.718-1.044a18.934,18.934,0,0,0,3.346-10.771,19.133,19.133,0,0,0-3.8-11.408,17.8,17.8,0,0,0-4.693-4.378,24.458,24.458,0,0,0-28.4,1.573,11.224,11.224,0,0,0-1.956,2.022l-.588.784a19.133,19.133,0,0,0-3.8,11.407A18.933,18.933,0,0,0,121.752,49.5l.718,1.044c2.234,3.25,4.381,6.617,6.39,10.022a175.142,175.142,0,0,0-12.429,25.04Zm48.54-9.6,3.946,9.866-11.908,13.231L146.87,92.427c-1.507-4.52-3.221-9.03-5.1-13.417q3.41-7.8,7.583-15.241a182.4,182.4,0,0,1,11.3,23.025Zm-9.214-61.15a13.89,13.89,0,0,1,1.58,1.169l-5.905,7.874a24.562,24.562,0,0,0-14.139.042L127.03,26.8a21.251,21.251,0,0,1,24.41-1.157Zm-11.41,18.49-4.987-6.649a21.363,21.363,0,0,1,10-.035Zm-14.92,4.593-.718-1.044a15.743,15.743,0,0,1-2.782-8.957,15.909,15.909,0,0,1,3.162-9.486l.041-.055,6.3,8.405,0,0,6.913,9.217c-2.55,3.458-4.99,7.035-7.281,10.676C128.958,54.515,127.068,51.577,125.11,48.729ZM132.1,61.392c0-.007.007-.014.011-.021,2.867-4.713,6-9.34,9.31-13.755l13.822-18.428.042.054a15.909,15.909,0,0,1,3.161,9.486,15.744,15.744,0,0,1-2.782,8.957l-.718,1.044a174.542,174.542,0,0,0-21.761,43.7l-5.822,17.465L115.459,96.661l3.947-9.866a171.92,171.92,0,0,1,12.7-25.4Z" transform="translate(0 0)"/></g></svg>