<svg xmlns="http://www.w3.org/2000/svg" width="82.022" height="95.474" viewBox="0 0 82.022 95.474"><defs><style>.a{fill:#185515;}</style></defs><g transform="translate(-36.069)"><g transform="translate(36.069 17.938)"><path class="a" d="M82.651,133.605l-15.974-3.993a1.583,1.583,0,0,1-1.19-1.328l-1.357-9.955a1.4,1.4,0,0,0-2.772.378l1.357,9.955A4.367,4.367,0,0,0,66,132.325l10.547,2.637L65.992,137.6a4.361,4.361,0,0,0-3.276,3.662l-2.825,20.718-2.825-20.717a4.362,4.362,0,0,0-3.277-3.663l-10.555-2.638,10.555-2.639a4.361,4.361,0,0,0,3.276-3.662l2.825-20.718.652,4.785a1.4,1.4,0,0,0,2.772-.378L61.276,97.4a1.4,1.4,0,0,0-2.772,0l-4.211,30.88a1.577,1.577,0,0,1-1.183,1.327l-15.982,4a1.4,1.4,0,0,0,0,2.714l15.982,3.995a1.578,1.578,0,0,1,1.183,1.327L58.5,172.521a1.4,1.4,0,0,0,2.772,0l4.211-30.88a1.577,1.577,0,0,1,1.183-1.327l15.981-4a1.4,1.4,0,0,0,0-2.714Z" transform="translate(-36.069 -96.194)"/></g><g transform="translate(73.439)"><g transform="translate(0)"><path class="a" d="M268.1,23.955,257.447,21.4a.552.552,0,0,1-.433-.434L254.207,1.2a1.4,1.4,0,0,0-2.769,0l-1.7,11.958a1.4,1.4,0,0,0,2.769.393l.314-2.21,1.422,10.015a3.324,3.324,0,0,0,2.55,2.761l4.983,1.2-4.988,1.2a3.32,3.32,0,0,0-2.545,2.76l-1.423,10.015L251.4,29.272a3.321,3.321,0,0,0-2.545-2.76l-4.988-1.2,4.988-1.2a3.321,3.321,0,0,0,2.544-2.76l.259-1.826a1.4,1.4,0,0,0-2.769-.393l-.259,1.826a.54.54,0,0,1-.428.433l-10.655,2.557a1.4,1.4,0,0,0,0,2.72L248.2,29.232a.541.541,0,0,1,.428.433l2.807,19.762a1.4,1.4,0,0,0,2.769,0l2.807-19.763a.538.538,0,0,1,.427-.433L268.1,26.675a1.4,1.4,0,0,0,0-2.72Z" transform="translate(-236.476)"/></g></g><g transform="translate(91.376 53.812)"><path class="a" d="M358.315,308.053l-8.52-2.077a.175.175,0,0,1-.139-.133l-2.246-16.058a1.4,1.4,0,0,0-2.77,0l-2.246,16.057a.169.169,0,0,1-.135.132l-8.524,2.078a1.4,1.4,0,0,0,0,2.718l8.524,2.077a.169.169,0,0,1,.135.132,1.4,1.4,0,1,0,2.77-.387,2.95,2.95,0,0,0-2.243-2.462l-2.949-.719,2.949-.719a2.95,2.95,0,0,0,2.243-2.462l.861-6.154.861,6.154a2.953,2.953,0,0,0,2.247,2.463l2.945.718-2.949.719a2.95,2.95,0,0,0-2.243,2.462l-.861,6.154-.078-.561a1.4,1.4,0,0,0-2.77.387l1.464,10.464a1.4,1.4,0,0,0,2.77,0l2.246-16.057a.169.169,0,0,1,.135-.132l8.524-2.077a1.4,1.4,0,0,0,0-2.718Z" transform="translate(-332.668 -288.581)"/></g></g></svg>