<svg xmlns="http://www.w3.org/2000/svg" width="94.774" height="95.005" viewBox="0 0 94.774 95.005"><defs><style>.a{fill:#185515;}</style></defs><g transform="translate(-0.569 0)"><g transform="translate(9.223 6.945)"><rect class="a" width="3.237" height="3.237"/></g><g transform="translate(15.698 6.945)"><rect class="a" width="3.237" height="3.237"/></g><g transform="translate(22.172 6.945)"><g transform="translate(0)"><rect class="a" width="3.237" height="3.237"/></g></g><g transform="translate(72.348 21.512)"><path class="a" d="M363.434,106.327H360.2a4.862,4.862,0,0,1-4.856,4.856v3.237a4.862,4.862,0,0,1,4.856,4.856h3.237a4.862,4.862,0,0,1,4.856-4.856v-3.237A4.862,4.862,0,0,1,363.434,106.327Zm-1.619,8.143a8.073,8.073,0,0,0-1.669-1.669,8.073,8.073,0,0,0,1.669-1.669,8.074,8.074,0,0,0,1.669,1.669A8.073,8.073,0,0,0,361.815,114.47Z" transform="translate(-355.341 -106.327)"/></g><g transform="translate(82.06 3.708)"><path class="a" d="M411.434,18.327H408.2a4.862,4.862,0,0,1-4.856,4.856V26.42a4.862,4.862,0,0,1,4.856,4.856h3.237a4.862,4.862,0,0,1,4.856-4.856V23.183A4.862,4.862,0,0,1,411.434,18.327Zm-1.619,8.143a8.074,8.074,0,0,0-1.669-1.669,8.073,8.073,0,0,0,1.669-1.669,8.074,8.074,0,0,0,1.669,1.669A8.074,8.074,0,0,0,409.815,26.47Z" transform="translate(-403.341 -18.327)"/></g><g transform="translate(0.569 0)"><path class="a" d="M58.459,91.6C42.2,90.228,23.6,84.131,8.718,75.289L4.3,72.668a28.581,28.581,0,0,0,1.408-4.71c.11-.469.222-.937.338-1.4.342-1.339.72-3.52,1.159-6.044A75.086,75.086,0,0,1,9.335,50.54l9.7-24.849c.212-.542.4-1.127.6-1.724.524-1.6,1.068-3.249,2.085-4.142a8.412,8.412,0,0,1,2.039-1.212,1.352,1.352,0,0,0,.236-.134L43.178,3.787a2.617,2.617,0,0,1,3.244.032l9.621,7.7a2.63,2.63,0,0,1,.087,4.03l-6.138,5.369A2.629,2.629,0,1,1,46.8,16.749l.544-.364-1.8-2.69-.542.363a5.866,5.866,0,1,0,7.115,9.3l5.162-4.516,1.588,2.383-9.7,8.313L37.591,28.084c.176-.829.379-1.653.615-2.468l-3.108-.9a38.025,38.025,0,0,0-1.5,11.5c.049,2.09.272,4.171.489,6.185a60.922,60.922,0,0,1,.477,6.866c-.044,6.78-2.671,13.111-7.026,16.929l2.133,2.434A23.519,23.519,0,0,0,36.393,58.1a4.492,4.492,0,0,1,1.721-.1,19.067,19.067,0,0,1,6.126,1.644A19.252,19.252,0,0,0,42.327,63.7L45.4,64.731a16,16,0,0,1,1.695-3.525c.039.026.081.045.118.071l1.552-2.264A21.2,21.2,0,0,1,61.53,52.434c7.826-1.173,15.1,1.51,19.02,6.987l2.633-1.884A19.6,19.6,0,0,0,77.02,52a18.247,18.247,0,0,1,17.262-3.3l1.062-3.058a21.553,21.553,0,0,0-21.48,4.846,25.4,25.4,0,0,0-12.811-1.261,24.377,24.377,0,0,0-14.817,7.748,22.4,22.4,0,0,0-7.839-2.2c-.358-.032-.741-.047-1.133-.044a29.959,29.959,0,0,0,.537-5.453,63.811,63.811,0,0,0-.5-7.234c-.209-1.947-.424-3.961-.469-5.916a34.672,34.672,0,0,1,.24-4.853l12.408,1.551c.071,0,.139.01.206.01a1.615,1.615,0,0,0,1.052-.39l11.33-9.712a1.616,1.616,0,0,0,.295-2.125l-2.839-4.26a5.784,5.784,0,0,0-1.46-7.371l-9.619-7.7A5.855,5.855,0,0,0,41.2,1.22l-18.327,14.1-.6.41a11.156,11.156,0,0,0-2.7,1.662c-1.677,1.475-2.394,3.645-3.024,5.561-.176.539-.351,1.068-.542,1.56l-9.7,24.849c-.827,2.12-1.577,6.431-2.3,10.6-.41,2.355-.795,4.581-1.106,5.8-.123.481-.238.966-.353,1.452A19.253,19.253,0,0,1,.787,72.484a1.619,1.619,0,0,0,.573,2.2l5.7,3.388c15.284,9.079,34.4,15.343,51.123,16.757,1.3.11,2.93.175,4.794.175,9.305,0,24.316-1.628,31.438-7.5l-2.057-2.5C85.006,91.072,66.649,92.294,58.459,91.6Z" transform="translate(-0.569 0)"/></g></g></svg>