<svg xmlns="http://www.w3.org/2000/svg" width="94.987" height="95.005" viewBox="0 0 94.987 95.005"><defs><style>.a{fill:#185515;}</style></defs><g transform="translate(0.002 0.005)"><g transform="translate(-0.002 -0.005)"><path class="a" d="M25.258,6.964a19.617,19.617,0,0,0-8.678,4.862,24.049,24.049,0,0,0-5.014,8.213,37.733,37.733,0,0,0-1.172,4.284l-.158.686a1.583,1.583,0,0,0,3.083.724l.158-.689a35,35,0,0,1,1.059-3.909A20.876,20.876,0,0,1,18.88,14.01,16.556,16.556,0,0,1,26.177,10a1.584,1.584,0,1,0-.921-3.03Z" transform="translate(4.367 2.451)"/><circle class="a" cx="1.5" cy="1.5" r="1.5" transform="translate(13 32)"/><path class="a" d="M88.033,23.835A15.806,15.806,0,0,0,64.747,3.9,36.083,36.083,0,0,0,48.528,1.052a105.57,105.57,0,0,0-15.315,2.2c-7.137,1.425-12.326,3.925-15.869,7.669a30.342,30.342,0,0,0-6.351,10.361,42.665,42.665,0,0,0-1.4,5.054L9.432,27A20.451,20.451,0,0,1,8.077,30.61c-.317.722-.644,1.442-.928,2.191a5.285,5.285,0,0,0-.418,2.647,6.047,6.047,0,0,0,2.307,3.537c.774.709,1.282,1.211,1.289,1.647a2.714,2.714,0,0,1-.269.689A61.289,61.289,0,0,1,3.13,52.578c-1.148,1.4-2.351,3.026-2.1,4.658a4.856,4.856,0,0,0,2.3,2.969,11.5,11.5,0,0,0,1.642.95c.686.351,1.833.937,1.914,1.347A2.75,2.75,0,0,1,6.7,64.1c-.236.507-.483.94-.7,1.319-.579,1.024-1.552,2.741-.087,3.933.342.317.933.774,1.471,1.189a3.987,3.987,0,0,0-.515,2.285,2.3,2.3,0,0,0,.939,1.56c.351.245.727.462,1.1.671.937.534,1.3.782,1.425,1.278a4.354,4.354,0,0,1-.158,1.9c-.093.424-.184.849-.237,1.267a9.422,9.422,0,0,0,.521,4.265,5.928,5.928,0,0,0,5.6,4.314,6.281,6.281,0,0,0,1.3-.138A119.7,119.7,0,0,0,30.7,83.953c3.569,2.093,5.822,8.458,6.409,10.846A1.583,1.583,0,0,0,38.651,96l39.74-.111A1.583,1.583,0,0,0,79.9,93.831a12.168,12.168,0,0,0-1.6-3.008,14.744,14.744,0,0,1-1.026-1.716A29.788,29.788,0,0,1,75.483,84.6a53.236,53.236,0,0,1-1.875-9.371,25.649,25.649,0,0,1,.135-7L86.5,55.49a3.167,3.167,0,0,0-2.239-5.405H79.283l1.187-3.167h3.653a11.875,11.875,0,0,0,3.909-23.083ZM74.427,90.5a17.433,17.433,0,0,0,1.23,2.074c.035.051.068.1.1.158l-35.912.1a25.223,25.223,0,0,0-5.573-10.111l1.482-.518c1.035-.361,1.816-.633,2.217-.763,6.784-2.142,10.176-5.225,10.084-9.183a1.613,1.613,0,0,0-1.617-1.544A1.583,1.583,0,0,0,44.9,72.336c.038,1.629-1.3,4.006-7.882,6.086-.421.136-1.225.416-2.294.792-1.186.415-2.7.95-4.378,1.514a122.852,122.852,0,0,1-13.616,4.117,2.8,2.8,0,0,1-3.269-2.112,6.294,6.294,0,0,1-.372-2.825c.041-.331.117-.662.19-.993a6.932,6.932,0,0,0,.138-3.369,5.249,5.249,0,0,0-2.932-3.238l-.328-.188a5.918,5.918,0,0,1,.611-.98,1.583,1.583,0,0,0-.3-2.253c-.38-.28-1.275-.95-1.932-1.479.076-.138.158-.29.237-.426.249-.437.532-.95.809-1.529A5.936,5.936,0,0,0,10,61.909c-.38-1.933-2.231-2.88-3.581-3.57A8.883,8.883,0,0,1,5.11,57.58a6.955,6.955,0,0,1-.95-.768c0-.239.258-.822,1.465-2.289a64.025,64.025,0,0,0,7.253-11.775,4.728,4.728,0,0,0,.608-2.136,5.542,5.542,0,0,0-2.313-3.958c-.633-.587-1.243-1.142-1.314-1.656a2.869,2.869,0,0,1,.247-1.086c.258-.678.556-1.343.855-2.009a23.116,23.116,0,0,0,1.548-4.174l.158-.673a39.943,39.943,0,0,1,1.3-4.679A27.144,27.144,0,0,1,19.646,13.1c3.03-3.208,7.8-5.473,14.193-6.745A102.849,102.849,0,0,1,48.689,4.215,32.932,32.932,0,0,1,62.116,6.248a15.675,15.675,0,0,0-1.878,2.489,11.083,11.083,0,0,0-15.26,14.748,11.875,11.875,0,0,0,2.73,23.433H64.519l-2.484,6.833A3.167,3.167,0,0,0,65.01,58h5.445l-1.36,10.887a1.583,1.583,0,0,0,.876,1.618,1.517,1.517,0,0,0,.356.084,28.2,28.2,0,0,0,.144,5.033,56.366,56.366,0,0,0,1.992,9.927A32.845,32.845,0,0,0,74.427,90.5ZM84.26,53.251,72.809,64.7,73.6,58.4a3.167,3.167,0,0,0-3.146-3.561H65.01l3.224-8.866a.14.14,0,0,1,.019-.052l1.938-5.331h9.273l-3.146,8.391a3.167,3.167,0,0,0,2.965,4.275ZM90.292,41.2a8.708,8.708,0,0,1-6.168,2.549H81.658l.771-2.058a3.167,3.167,0,0,0-2.965-4.275H70.19A3.176,3.176,0,0,0,67.214,39.5L65.67,43.752H47.708a8.708,8.708,0,1,1,.063-17.416,1.583,1.583,0,0,0,1.173-2.647,7.831,7.831,0,0,1-2.028-5.269,7.916,7.916,0,0,1,12.9-6.151,1.583,1.583,0,0,0,2.448-.584A12.666,12.666,0,0,1,86.5,16.836a12.525,12.525,0,0,1-2.217,7.125,1.583,1.583,0,0,0,1.081,2.465A8.708,8.708,0,0,1,90.3,41.2Z" transform="translate(-0.998 -0.995)"/><path class="a" d="M44.583,11a1.583,1.583,0,0,0,0,3.167A6.333,6.333,0,0,1,50.916,20.5a1.583,1.583,0,0,0,3.167,0A9.509,9.509,0,0,0,44.583,11Z" transform="translate(23.5 4.841)"/><path class="a" d="M40.333,17A6.333,6.333,0,0,0,34,23.333a1.583,1.583,0,1,0,3.167,0,3.167,3.167,0,0,1,3.167-3.167,1.583,1.583,0,0,0,0-3.167Z" transform="translate(18.251 8.34)"/><path class="a" d="M41.666,41.491c0-3.073-4.294-8.015-5.155-8.974a1.636,1.636,0,0,0-2.356,0c-.861.959-5.155,5.9-5.155,8.974a6.333,6.333,0,0,0,12.666,0Zm-6.333,3.167a3.167,3.167,0,0,1-3.167-3.167c0-1.01,1.487-3.366,3.167-5.464,1.681,2.109,3.167,4.484,3.167,5.464A3.167,3.167,0,0,1,35.333,44.657Z" transform="translate(15.334 17.099)"/><path class="a" d="M62.666,52.491c0-3.073-4.294-8.015-5.155-8.974a1.636,1.636,0,0,0-2.356,0c-.861.959-5.155,5.9-5.155,8.974a6.333,6.333,0,1,0,12.666,0Zm-9.5,0c0-1.01,1.487-3.366,3.167-5.464,1.681,2.109,3.167,4.484,3.167,5.464a3.167,3.167,0,0,1-6.333,0Z" transform="translate(27.583 23.515)"/><path class="a" d="M40.155,46.517c-.861.959-5.155,5.9-5.155,8.974a6.333,6.333,0,1,0,12.666,0c0-3.073-4.294-8.015-5.155-8.974a1.636,1.636,0,0,0-2.356,0Zm1.178,12.141a3.167,3.167,0,0,1-3.167-3.167c0-1.01,1.487-3.366,3.167-5.464,1.681,2.109,3.167,4.484,3.167,5.464A3.167,3.167,0,0,1,41.333,58.657Z" transform="translate(18.834 25.265)"/></g></g></svg>