<svg xmlns="http://www.w3.org/2000/svg" width="95.474" height="95.474" viewBox="0 0 95.474 95.474"><defs><style>.a{fill:#185515;}</style></defs><path class="a" d="M13.489,11.934A1.99,1.99,0,0,1,11.5,9.945V1.989a1.989,1.989,0,1,1,3.978,0V9.945A1.99,1.99,0,0,1,13.489,11.934Z" transform="translate(34.248)"/><path class="a" d="M20.208,12.969A1.987,1.987,0,0,1,18.8,9.576l5.625-5.625a1.989,1.989,0,1,1,2.813,2.813l-5.625,5.625A1.982,1.982,0,0,1,20.208,12.969Z" transform="translate(54.254 10.032)"/><path class="a" d="M30.945,15.478H22.989a1.989,1.989,0,1,1,0-3.978h7.956a1.989,1.989,0,1,1,0,3.978Z" transform="translate(62.54 34.248)"/><path class="a" d="M25.833,27.819a2,2,0,0,1-1.408-.581L18.8,21.613A1.989,1.989,0,0,1,21.612,18.8l5.625,5.625a1.987,1.987,0,0,1-1.4,3.393Z" transform="translate(54.254 54.257)"/><path class="a" d="M13.489,32.934A1.99,1.99,0,0,1,11.5,30.945V22.989a1.989,1.989,0,1,1,3.978,0v7.956A1.99,1.99,0,0,1,13.489,32.934Z" transform="translate(34.248 62.54)"/><path class="a" d="M5.358,27.819A1.987,1.987,0,0,1,3.95,24.426L9.575,18.8a1.989,1.989,0,0,1,2.813,2.813L6.762,27.238A1.982,1.982,0,0,1,5.358,27.819Z" transform="translate(10.029 54.257)"/><path class="a" d="M9.945,15.478H1.989a1.989,1.989,0,1,1,0-3.978H9.945a1.989,1.989,0,1,1,0,3.978Z" transform="translate(0 34.248)"/><path class="a" d="M10.98,12.969a2,2,0,0,1-1.408-.581L3.951,6.763A1.989,1.989,0,0,1,6.763,3.951l5.625,5.625a1.987,1.987,0,0,1-1.408,3.393Z" transform="translate(10.032 10.032)"/><path class="a" d="M21.214,67.653a2.024,2.024,0,0,1-.7-.123,1.989,1.989,0,0,1-1.277-2.124l3.393-25.6H8.989A1.989,1.989,0,0,1,7.4,36.624L31.267,4.8a1.991,1.991,0,0,1,3.556,1.52l-3.6,21.553H44.792a1.986,1.986,0,0,1,1.75,1.046,2.008,2.008,0,0,1-.088,2.041l-23.578,35.8a2,2,0,0,1-1.663.891ZM12.967,35.828H24.9a1.994,1.994,0,0,1,1.973,2.252l-2.55,19.246L41.1,31.85H28.88a1.986,1.986,0,0,1-1.961-2.315L29.556,13.71Z" transform="translate(20.846 11.909)"/></svg>